<mxfile host="app.diagrams.net" modified="2024-05-29T06:32:25.367Z" agent="Mozilla/5.0 (Windows NT 10.0; Win64; x64) AppleWebKit/537.36 (KHTML, like Gecko) Chrome/125.0.0.0 Safari/537.36" etag="G2zmDLjLcuIdhuW0vKk7" version="24.3.1" type="device">
  <diagram id="R2lEEEUBdFMjLlhIrx00" name="Page-1">
    <mxGraphModel dx="4193" dy="784" grid="1" gridSize="10" guides="1" tooltips="1" connect="1" arrows="1" fold="1" page="1" pageScale="1" pageWidth="850" pageHeight="1100" math="0" shadow="0" extFonts="Permanent Marker^https://fonts.googleapis.com/css?family=Permanent+Marker">
      <root>
        <mxCell id="0" />
        <mxCell id="1" parent="0" />
        <mxCell id="IeWaTaDR5QfWAJEZIo10-188" style="edgeStyle=orthogonalEdgeStyle;rounded=0;orthogonalLoop=1;jettySize=auto;html=1;entryX=0.5;entryY=0;entryDx=0;entryDy=0;" edge="1" parent="1" source="IeWaTaDR5QfWAJEZIo10-194" target="IeWaTaDR5QfWAJEZIo10-195">
          <mxGeometry relative="1" as="geometry" />
        </mxCell>
        <mxCell id="IeWaTaDR5QfWAJEZIo10-189" style="edgeStyle=orthogonalEdgeStyle;rounded=0;orthogonalLoop=1;jettySize=auto;html=1;exitX=0.25;exitY=1;exitDx=0;exitDy=0;entryX=0.5;entryY=0;entryDx=0;entryDy=0;" edge="1" parent="1" source="IeWaTaDR5QfWAJEZIo10-194" target="IeWaTaDR5QfWAJEZIo10-196">
          <mxGeometry relative="1" as="geometry" />
        </mxCell>
        <mxCell id="IeWaTaDR5QfWAJEZIo10-190" style="edgeStyle=orthogonalEdgeStyle;rounded=0;orthogonalLoop=1;jettySize=auto;html=1;exitX=0.75;exitY=1;exitDx=0;exitDy=0;entryX=0.5;entryY=0;entryDx=0;entryDy=0;" edge="1" parent="1" source="IeWaTaDR5QfWAJEZIo10-194" target="IeWaTaDR5QfWAJEZIo10-197">
          <mxGeometry relative="1" as="geometry" />
        </mxCell>
        <mxCell id="IeWaTaDR5QfWAJEZIo10-228" style="edgeStyle=orthogonalEdgeStyle;rounded=0;orthogonalLoop=1;jettySize=auto;html=1;entryX=0.5;entryY=0;entryDx=0;entryDy=0;" edge="1" parent="1" source="IeWaTaDR5QfWAJEZIo10-194" target="IeWaTaDR5QfWAJEZIo10-225">
          <mxGeometry relative="1" as="geometry" />
        </mxCell>
        <mxCell id="IeWaTaDR5QfWAJEZIo10-194" value="Директор лагеря" style="rounded=0;whiteSpace=wrap;html=1;" vertex="1" parent="1">
          <mxGeometry x="910" y="1790" width="120" height="60" as="geometry" />
        </mxCell>
        <mxCell id="IeWaTaDR5QfWAJEZIo10-195" value="Главный инструктор" style="rounded=0;whiteSpace=wrap;html=1;" vertex="1" parent="1">
          <mxGeometry x="600" y="1920" width="120" height="60" as="geometry" />
        </mxCell>
        <mxCell id="IeWaTaDR5QfWAJEZIo10-221" style="edgeStyle=orthogonalEdgeStyle;rounded=0;orthogonalLoop=1;jettySize=auto;html=1;entryX=1;entryY=0.5;entryDx=0;entryDy=0;" edge="1" parent="1" source="IeWaTaDR5QfWAJEZIo10-196" target="IeWaTaDR5QfWAJEZIo10-199">
          <mxGeometry relative="1" as="geometry" />
        </mxCell>
        <mxCell id="IeWaTaDR5QfWAJEZIo10-196" value="Старший вожатый" style="rounded=0;whiteSpace=wrap;html=1;" vertex="1" parent="1">
          <mxGeometry x="821" y="1920" width="120" height="60" as="geometry" />
        </mxCell>
        <mxCell id="IeWaTaDR5QfWAJEZIo10-197" value="Главный по обратной связи" style="rounded=0;whiteSpace=wrap;html=1;" vertex="1" parent="1">
          <mxGeometry x="1040" y="1920" width="120" height="60" as="geometry" />
        </mxCell>
        <mxCell id="IeWaTaDR5QfWAJEZIo10-198" value="Вожатый 1" style="rounded=0;whiteSpace=wrap;html=1;" vertex="1" parent="1">
          <mxGeometry x="741" y="2024" width="120" height="60" as="geometry" />
        </mxCell>
        <mxCell id="IeWaTaDR5QfWAJEZIo10-199" value="Вожатый 2" style="rounded=0;whiteSpace=wrap;html=1;" vertex="1" parent="1">
          <mxGeometry x="741" y="2110" width="120" height="60" as="geometry" />
        </mxCell>
        <mxCell id="IeWaTaDR5QfWAJEZIo10-202" value="" style="endArrow=classic;html=1;rounded=0;entryX=1;entryY=0.5;entryDx=0;entryDy=0;" edge="1" parent="1" target="IeWaTaDR5QfWAJEZIo10-198">
          <mxGeometry width="50" height="50" relative="1" as="geometry">
            <mxPoint x="881" y="2054" as="sourcePoint" />
            <mxPoint x="1031" y="2050" as="targetPoint" />
          </mxGeometry>
        </mxCell>
        <mxCell id="IeWaTaDR5QfWAJEZIo10-203" value="" style="endArrow=classic;html=1;rounded=0;entryX=1;entryY=0.5;entryDx=0;entryDy=0;" edge="1" parent="1" target="IeWaTaDR5QfWAJEZIo10-199">
          <mxGeometry width="50" height="50" relative="1" as="geometry">
            <mxPoint x="881" y="2140" as="sourcePoint" />
            <mxPoint x="871" y="2064" as="targetPoint" />
          </mxGeometry>
        </mxCell>
        <mxCell id="IeWaTaDR5QfWAJEZIo10-205" value="Менеджер по обратной связи" style="rounded=0;whiteSpace=wrap;html=1;" vertex="1" parent="1">
          <mxGeometry x="960" y="2024" width="120" height="60" as="geometry" />
        </mxCell>
        <mxCell id="IeWaTaDR5QfWAJEZIo10-206" value="Менеджер по отзывам" style="rounded=0;whiteSpace=wrap;html=1;" vertex="1" parent="1">
          <mxGeometry x="960" y="2110" width="120" height="60" as="geometry" />
        </mxCell>
        <mxCell id="IeWaTaDR5QfWAJEZIo10-207" value="" style="endArrow=none;html=1;rounded=0;entryX=0.5;entryY=1;entryDx=0;entryDy=0;" edge="1" parent="1">
          <mxGeometry width="50" height="50" relative="1" as="geometry">
            <mxPoint x="1100.0000000000002" y="2140" as="sourcePoint" />
            <mxPoint x="1100.0000000000002" y="1980" as="targetPoint" />
          </mxGeometry>
        </mxCell>
        <mxCell id="IeWaTaDR5QfWAJEZIo10-208" value="" style="endArrow=classic;html=1;rounded=0;entryX=1;entryY=0.5;entryDx=0;entryDy=0;" edge="1" parent="1" target="IeWaTaDR5QfWAJEZIo10-205">
          <mxGeometry width="50" height="50" relative="1" as="geometry">
            <mxPoint x="1100.0000000000002" y="2054" as="sourcePoint" />
            <mxPoint x="1250.0000000000002" y="2050" as="targetPoint" />
          </mxGeometry>
        </mxCell>
        <mxCell id="IeWaTaDR5QfWAJEZIo10-209" value="" style="endArrow=classic;html=1;rounded=0;entryX=1;entryY=0.5;entryDx=0;entryDy=0;" edge="1" parent="1" target="IeWaTaDR5QfWAJEZIo10-206">
          <mxGeometry width="50" height="50" relative="1" as="geometry">
            <mxPoint x="1100.0000000000002" y="2140" as="sourcePoint" />
            <mxPoint x="1090.0000000000002" y="2064" as="targetPoint" />
          </mxGeometry>
        </mxCell>
        <mxCell id="IeWaTaDR5QfWAJEZIo10-210" value="Повар 1" style="rounded=0;whiteSpace=wrap;html=1;" vertex="1" parent="1">
          <mxGeometry x="1165.0000000000002" y="2024" width="120" height="60" as="geometry" />
        </mxCell>
        <mxCell id="IeWaTaDR5QfWAJEZIo10-211" value="Повар 2&amp;nbsp;" style="rounded=0;whiteSpace=wrap;html=1;" vertex="1" parent="1">
          <mxGeometry x="1165.0000000000002" y="2110" width="120" height="60" as="geometry" />
        </mxCell>
        <mxCell id="IeWaTaDR5QfWAJEZIo10-214" value="Инструктор 1" style="rounded=0;whiteSpace=wrap;html=1;" vertex="1" parent="1">
          <mxGeometry x="520" y="2024" width="120" height="60" as="geometry" />
        </mxCell>
        <mxCell id="IeWaTaDR5QfWAJEZIo10-215" value="Инструктор 2&amp;nbsp;" style="rounded=0;whiteSpace=wrap;html=1;" vertex="1" parent="1">
          <mxGeometry x="520" y="2110" width="120" height="60" as="geometry" />
        </mxCell>
        <mxCell id="IeWaTaDR5QfWAJEZIo10-216" value="Инструктор 3&amp;nbsp;" style="rounded=0;whiteSpace=wrap;html=1;" vertex="1" parent="1">
          <mxGeometry x="520" y="2200" width="120" height="60" as="geometry" />
        </mxCell>
        <mxCell id="IeWaTaDR5QfWAJEZIo10-217" value="" style="endArrow=none;html=1;rounded=0;entryX=0.5;entryY=1;entryDx=0;entryDy=0;" edge="1" parent="1">
          <mxGeometry width="50" height="50" relative="1" as="geometry">
            <mxPoint x="660" y="2230" as="sourcePoint" />
            <mxPoint x="660" y="1980" as="targetPoint" />
          </mxGeometry>
        </mxCell>
        <mxCell id="IeWaTaDR5QfWAJEZIo10-218" value="" style="endArrow=classic;html=1;rounded=0;entryX=1;entryY=0.5;entryDx=0;entryDy=0;" edge="1" parent="1" target="IeWaTaDR5QfWAJEZIo10-214">
          <mxGeometry width="50" height="50" relative="1" as="geometry">
            <mxPoint x="660" y="2054" as="sourcePoint" />
            <mxPoint x="810" y="2050" as="targetPoint" />
          </mxGeometry>
        </mxCell>
        <mxCell id="IeWaTaDR5QfWAJEZIo10-219" value="" style="endArrow=classic;html=1;rounded=0;entryX=1;entryY=0.5;entryDx=0;entryDy=0;" edge="1" parent="1" target="IeWaTaDR5QfWAJEZIo10-215">
          <mxGeometry width="50" height="50" relative="1" as="geometry">
            <mxPoint x="660" y="2140" as="sourcePoint" />
            <mxPoint x="650" y="2064" as="targetPoint" />
          </mxGeometry>
        </mxCell>
        <mxCell id="IeWaTaDR5QfWAJEZIo10-220" value="" style="endArrow=classic;html=1;rounded=0;entryX=1;entryY=0.5;entryDx=0;entryDy=0;" edge="1" parent="1" target="IeWaTaDR5QfWAJEZIo10-216">
          <mxGeometry width="50" height="50" relative="1" as="geometry">
            <mxPoint x="660" y="2230" as="sourcePoint" />
            <mxPoint x="660" y="2074" as="targetPoint" />
          </mxGeometry>
        </mxCell>
        <mxCell id="IeWaTaDR5QfWAJEZIo10-223" style="edgeStyle=orthogonalEdgeStyle;rounded=0;orthogonalLoop=1;jettySize=auto;html=1;entryX=0.5;entryY=0;entryDx=0;entryDy=0;" edge="1" parent="1" source="IeWaTaDR5QfWAJEZIo10-222" target="IeWaTaDR5QfWAJEZIo10-194">
          <mxGeometry relative="1" as="geometry" />
        </mxCell>
        <mxCell id="IeWaTaDR5QfWAJEZIo10-222" value="Директор организации" style="rounded=0;whiteSpace=wrap;html=1;" vertex="1" parent="1">
          <mxGeometry x="910" y="1650" width="120" height="60" as="geometry" />
        </mxCell>
        <mxCell id="IeWaTaDR5QfWAJEZIo10-230" style="edgeStyle=orthogonalEdgeStyle;rounded=0;orthogonalLoop=1;jettySize=auto;html=1;entryX=1;entryY=0.5;entryDx=0;entryDy=0;" edge="1" parent="1" source="IeWaTaDR5QfWAJEZIo10-225" target="IeWaTaDR5QfWAJEZIo10-210">
          <mxGeometry relative="1" as="geometry">
            <Array as="points">
              <mxPoint x="1380" y="2010" />
              <mxPoint x="1380" y="2010" />
              <mxPoint x="1380" y="2054" />
            </Array>
          </mxGeometry>
        </mxCell>
        <mxCell id="IeWaTaDR5QfWAJEZIo10-231" style="edgeStyle=orthogonalEdgeStyle;rounded=0;orthogonalLoop=1;jettySize=auto;html=1;entryX=1;entryY=0.5;entryDx=0;entryDy=0;" edge="1" parent="1">
          <mxGeometry relative="1" as="geometry">
            <mxPoint x="1379.977543859649" y="1980" as="sourcePoint" />
            <mxPoint x="1284.96" y="2140" as="targetPoint" />
            <Array as="points">
              <mxPoint x="1380" y="2140" />
            </Array>
          </mxGeometry>
        </mxCell>
        <mxCell id="IeWaTaDR5QfWAJEZIo10-225" value="Шеф-повар" style="rounded=0;whiteSpace=wrap;html=1;" vertex="1" parent="1">
          <mxGeometry x="1320" y="1920" width="120" height="60" as="geometry" />
        </mxCell>
      </root>
    </mxGraphModel>
  </diagram>
</mxfile>
